<svg width="253" height="104" viewBox="0 0 253 104" fill="none" xmlns="http://www.w3.org/2000/svg">
<path d="M252.289 76.8387C252.289 77.564 252.017 78.1987 251.473 78.7427C250.929 79.2867 250.294 79.5587 249.568 79.5587H240.592V99.5507C240.592 100.276 240.321 100.911 239.777 101.455C239.323 101.999 238.734 102.271 238.008 102.271H219.921C219.195 102.271 218.56 101.999 218.016 101.455C217.563 100.911 217.337 100.276 217.337 99.5507V79.5587H178.033C177.307 79.5587 176.672 79.2867 176.128 78.7427C175.584 78.1987 175.312 77.564 175.312 76.8387V63.6467C175.312 62.2867 175.811 60.8813 176.809 59.4307L219.785 3.12666C220.238 2.49199 220.736 2.03865 221.281 1.76666C221.825 1.40399 222.504 1.22266 223.32 1.22266H237.872C238.598 1.22266 239.233 1.49466 239.777 2.03865C240.321 2.58266 240.592 3.21732 240.592 3.94265V61.6067H249.568C250.294 61.6067 250.929 61.8787 251.473 62.4227C252.017 62.9667 252.289 63.6013 252.289 64.3267V76.8387ZM218.016 31.6867C218.016 31.1427 217.835 30.8707 217.473 30.8707C217.382 30.8707 217.246 30.9613 217.064 31.1427L195.712 60.2467C195.531 60.428 195.441 60.7 195.441 61.0627C195.441 61.4253 195.712 61.6067 196.257 61.6067H218.016V31.6867Z" fill="#452C44" style="fill:#452C44;fill:color(display-p3 0.2706 0.1725 0.2667);fill-opacity:1;"/>
<path d="M162.728 57.664C162.728 65.824 161.867 72.8053 160.144 78.608C158.512 84.4107 156.11 89.1707 152.936 92.888C149.854 96.5147 146.046 99.1893 141.512 100.912C136.979 102.635 131.811 103.496 126.008 103.496C120.206 103.496 115.038 102.635 110.504 100.912C105.971 99.1893 102.118 96.5147 98.9443 92.888C95.8616 89.1707 93.5043 84.4107 91.8723 78.608C90.2403 72.8053 89.4243 65.824 89.4243 57.664V45.968C89.4243 37.808 90.2403 30.8267 91.8723 25.024C93.5043 19.2213 95.8616 14.4613 98.9443 10.744C102.118 7.02667 105.971 4.30667 110.504 2.584C115.038 0.861333 120.206 0 126.008 0C131.811 0 136.979 0.861333 141.512 2.584C146.046 4.30667 149.854 7.02667 152.936 10.744C156.11 14.4613 158.512 19.2213 160.144 25.024C161.867 30.8267 162.728 37.808 162.728 45.968V57.664ZM139.472 45.968C139.472 40.6187 139.11 36.2213 138.384 32.776C137.75 29.3307 136.798 26.6107 135.528 24.616C134.35 22.6213 132.944 21.2613 131.312 20.536C129.68 19.72 127.912 19.312 126.008 19.312C124.104 19.312 122.336 19.72 120.704 20.536C119.072 21.2613 117.667 22.6213 116.488 24.616C115.31 26.6107 114.358 29.3307 113.632 32.776C112.998 36.2213 112.68 40.6187 112.68 45.968V57.664C112.68 63.0133 112.998 67.4107 113.632 70.856C114.358 74.3013 115.31 77.0213 116.488 79.016C117.667 81.0107 119.072 82.3707 120.704 83.096C122.336 83.8213 124.104 84.184 126.008 84.184C127.912 84.184 129.68 83.8213 131.312 83.096C132.944 82.3707 134.35 81.0107 135.528 79.016C136.798 77.0213 137.75 74.3013 138.384 70.856C139.11 67.4107 139.472 63.0133 139.472 57.664V45.968Z" fill="#C2A88A" style="fill:#C2A88A;fill:color(display-p3 0.7608 0.6588 0.5412);fill-opacity:1;"/>
<path d="M76.976 76.8387C76.976 77.564 76.704 78.1987 76.16 78.7427C75.616 79.2867 74.9813 79.5587 74.256 79.5587H65.28V99.5507C65.28 100.276 65.008 100.911 64.464 101.455C64.0107 101.999 63.4213 102.271 62.696 102.271H44.608C43.8827 102.271 43.248 101.999 42.704 101.455C42.2507 100.911 42.024 100.276 42.024 99.5507V79.5587H2.72C1.99467 79.5587 1.36 79.2867 0.816 78.7427C0.272 78.1987 0 77.564 0 76.8387V63.6467C0 62.2867 0.498666 60.8813 1.496 59.4307L44.472 3.12666C44.9253 2.49199 45.424 2.03865 45.968 1.76666C46.512 1.40399 47.192 1.22266 48.008 1.22266H62.56C63.2853 1.22266 63.92 1.49466 64.464 2.03865C65.008 2.58266 65.28 3.21732 65.28 3.94265V61.6067H74.256C74.9813 61.6067 75.616 61.8787 76.16 62.4227C76.704 62.9667 76.976 63.6013 76.976 64.3267V76.8387ZM42.704 31.6867C42.704 31.1427 42.5227 30.8707 42.16 30.8707C42.0693 30.8707 41.9333 30.9613 41.752 31.1427L20.4 60.2467C20.2187 60.428 20.128 60.7 20.128 61.0627C20.128 61.4253 20.4 61.6067 20.944 61.6067H42.704V31.6867Z" fill="#452C44" style="fill:#452C44;fill:color(display-p3 0.2706 0.1725 0.2667);fill-opacity:1;"/>
</svg>
