<svg width="27" height="18" viewBox="0 0 27 18" fill="none" xmlns="http://www.w3.org/2000/svg">
<path d="M2.71978 0H23.6538C24.3748 0.00108994 25.066 0.287987 25.5758 0.797809C26.0856 1.30763 26.3725 1.99878 26.3736 2.71978V15.2802C26.3725 16.0012 26.0856 16.6924 25.5758 17.2022C25.066 17.712 24.3748 17.9989 23.6538 18H2.71978C1.99878 17.9989 1.30763 17.712 0.797809 17.2022C0.287987 16.6924 0.00108994 16.0012 0 15.2802V2.71978C0.00108994 1.99878 0.287987 1.30763 0.797809 0.797809C1.30763 0.287987 1.99878 0.00108994 2.71978 0ZM23.6538 16.7448C24.0424 16.7443 24.4148 16.5898 24.6895 16.3151C24.9643 16.0404 25.1188 15.6679 25.1192 15.2794V2.71978C25.1184 2.33156 24.9636 1.95951 24.689 1.68514C24.4143 1.41078 24.0421 1.25648 23.6538 1.25604H2.71978C2.33184 1.25691 1.96004 1.41141 1.68572 1.68572C1.41141 1.96004 1.25691 2.33184 1.25604 2.71978V15.2802C1.2567 15.6683 1.4111 16.0403 1.68543 16.3148C1.95977 16.5893 2.3317 16.7439 2.71978 16.7448H23.6538Z" fill="black" style="fill:black;fill-opacity:1;"/>
<path d="M8.15227 6.51809C8.05884 6.63584 7.93953 6.73048 7.8036 6.79466C7.66767 6.85883 7.51878 6.89082 7.36848 6.88814C7.35884 6.74099 7.37866 6.59339 7.42678 6.454C7.4749 6.3146 7.55034 6.18621 7.6487 6.07633C7.84618 5.84728 8.12477 5.70371 8.4259 5.67578C8.44749 5.98142 8.34936 6.28348 8.15227 6.51809ZM8.4226 6.94748C7.99073 6.92276 7.62068 7.19474 7.41546 7.19474C7.21024 7.19474 6.89293 6.9615 6.5509 6.96809C6.32819 6.9738 6.11085 7.03766 5.92044 7.15332C5.73003 7.26898 5.57318 7.43242 5.46546 7.62743C5.28914 8.05929 5.22685 8.52924 5.28458 8.99211C5.34232 9.45499 5.51813 9.89525 5.79513 10.2706C6.01601 10.5936 6.28057 10.948 6.62837 10.9357C6.95804 10.9233 7.08826 10.7214 7.48634 10.7214C7.88442 10.7214 8.00227 10.9357 8.3509 10.9299C8.71189 10.9233 8.93854 10.6068 9.15942 10.2829C9.31526 10.0546 9.43687 9.80469 9.52041 9.54117C9.31282 9.44969 9.13627 9.2999 9.0122 9.10999C8.88813 8.92009 8.82188 8.69823 8.8215 8.47139C8.82443 8.27011 8.87807 8.07283 8.97747 7.8978C9.07688 7.72276 9.21883 7.57563 9.39019 7.47001C9.28049 7.3146 9.13641 7.18659 8.96916 7.09596C8.80191 7.00533 8.616 6.95452 8.4259 6.94748M10.919 6.04584V10.8936H11.6715V9.23622H12.7133C12.9272 9.24775 13.1412 9.21449 13.3415 9.13855C13.5418 9.06262 13.7241 8.9457 13.8766 8.79526C14.0291 8.64483 14.1486 8.4642 14.2272 8.26495C14.3059 8.0657 14.3422 7.8522 14.3336 7.63814C14.3439 7.42603 14.3096 7.21412 14.233 7.01606C14.1564 6.81799 14.0392 6.63816 13.8889 6.48816C13.7386 6.33815 13.5585 6.2213 13.3603 6.14511C13.1621 6.06893 12.9501 6.03511 12.738 6.04584H10.919ZM11.6715 6.68045H12.5394C12.6728 6.66239 12.8085 6.67425 12.9367 6.71519C13.065 6.75613 13.1825 6.82512 13.2808 6.91714C13.379 7.00915 13.4555 7.1219 13.5048 7.24718C13.554 7.37247 13.5748 7.50715 13.5655 7.64144C13.5754 7.77632 13.555 7.9117 13.5058 8.03767C13.4566 8.16364 13.3798 8.27701 13.2811 8.36947C13.1824 8.46192 13.0643 8.53113 12.9353 8.57201C12.8064 8.61289 12.67 8.62441 12.5361 8.60573H11.6715V6.68045ZM15.71 10.9307C15.9329 10.9361 16.1531 10.8815 16.3477 10.7726C16.5423 10.6637 16.704 10.5046 16.816 10.3118H16.8317V10.8928H17.5281V8.47798C17.5281 7.77825 16.9685 7.32413 16.1072 7.32413C15.7762 7.28178 15.4419 7.37217 15.1774 7.57557C14.9128 7.77896 14.7395 8.07881 14.6954 8.40957H15.3729C15.4118 8.255 15.5053 8.11974 15.6362 8.02883C15.7671 7.93792 15.9266 7.8975 16.085 7.91507C16.5449 7.91507 16.8028 8.12935 16.8028 8.52413V8.79117L15.8641 8.84721C14.9905 8.89996 14.5174 9.2593 14.5174 9.8799C14.5186 10.0297 14.5513 10.1775 14.6134 10.3138C14.6755 10.4501 14.7657 10.5718 14.8779 10.6709C14.9902 10.77 15.1221 10.8444 15.265 10.8892C15.408 10.9339 15.5587 10.9481 15.7075 10.9307H15.71ZM15.9119 10.3538C15.5105 10.3538 15.2525 10.1609 15.2525 9.86589C15.2525 9.57084 15.4998 9.38375 15.9679 9.35573L16.8053 9.30216V9.57578C16.8007 9.68684 16.7734 9.79579 16.7253 9.89597C16.6771 9.99615 16.609 10.0855 16.5252 10.1584C16.4413 10.2314 16.3435 10.2865 16.2376 10.3204C16.1317 10.3543 16.0201 10.3662 15.9094 10.3555L15.9119 10.3538ZM18.4594 12.2115C19.1929 12.2115 19.5383 11.9313 19.8399 11.0832L21.1586 7.37441H20.3938L19.5102 10.2401H19.4946L18.6086 7.37688H17.8223L19.0973 10.906L19.0289 11.1203C19.0056 11.2685 18.9273 11.4025 18.8098 11.4958C18.6923 11.5891 18.544 11.6348 18.3943 11.6239C18.335 11.6239 18.2204 11.6173 18.1734 11.6115V12.1925C18.2682 12.2054 18.3638 12.2118 18.4594 12.2115Z" fill="black" style="fill:black;fill-opacity:1;"/>
<path d="M8.61922 5.67773L8.62911 5.77664C8.65391 6.10617 8.54723 6.43212 8.33241 6.68323C8.23325 6.80353 8.11001 6.90175 7.97063 6.97159C7.83124 7.04142 7.67879 7.08132 7.52306 7.08872C7.50109 7.08872 7.47911 7.08872 7.45713 7.08872L7.37471 7.08131L7.364 6.99889C7.35132 6.83801 7.37145 6.67624 7.42316 6.52338C7.47487 6.37051 7.55708 6.22974 7.66482 6.1096C7.88265 5.86079 8.18837 5.70601 8.51784 5.67773H8.61922ZM7.5651 6.87279C7.80072 6.84407 8.01635 6.72607 8.16757 6.54312C8.32071 6.36298 8.40996 6.13724 8.42142 5.90109C8.19155 5.94879 7.98317 6.06931 7.82719 6.24477C7.67098 6.41824 7.57854 6.63975 7.5651 6.87279ZM10.9121 6.04284H12.839C13.0632 6.03043 13.2875 6.06491 13.4976 6.1441C13.7078 6.22328 13.8991 6.34542 14.0593 6.50272C14.2195 6.66002 14.3452 6.84901 14.4283 7.05762C14.5114 7.26623 14.55 7.48988 14.5417 7.71427C14.5488 7.94104 14.5085 8.16679 14.4233 8.37707C14.3381 8.58735 14.21 8.77752 14.0471 8.93541C13.8841 9.09329 13.69 9.21541 13.4772 9.29395C13.2643 9.37248 13.0374 9.4057 12.811 9.39147H11.878V11.0225H10.9121V6.04284ZM12.8143 9.18213C13.0127 9.19485 13.2115 9.16599 13.3981 9.09739C13.5847 9.0288 13.7549 8.92199 13.8978 8.78381C14.0407 8.64562 14.1532 8.47911 14.2281 8.29493C14.3029 8.11076 14.3384 7.91298 14.3324 7.71427C14.3411 7.51738 14.3081 7.32088 14.2357 7.1376C14.1632 6.95431 14.0529 6.78838 13.912 6.65062C13.771 6.51287 13.6026 6.4064 13.4177 6.33817C13.2328 6.26994 13.0356 6.24148 12.839 6.25466H11.1247V10.8132H11.6645V9.18213H12.8143ZM11.6654 6.66675H12.6395C12.7857 6.64781 12.9343 6.66126 13.0747 6.70612C13.2151 6.75098 13.3439 6.82616 13.4521 6.92635C13.5602 7.02653 13.645 7.14926 13.7004 7.28585C13.7558 7.42244 13.7805 7.56954 13.7728 7.71675C13.7808 7.8644 13.7562 8.01201 13.7007 8.1491C13.6453 8.28619 13.5604 8.4094 13.452 8.51C13.3436 8.6106 13.2144 8.68612 13.0736 8.7312C12.9328 8.77628 12.7837 8.78982 12.6371 8.77087H11.6654V6.66675ZM12.6371 8.56235C13.233 8.56235 13.561 8.26235 13.561 7.71839C13.561 7.17444 13.2313 6.87773 12.6404 6.87773H11.878V8.56235H12.6371ZM8.46345 6.92883H8.52609C8.73215 6.93382 8.93418 6.98704 9.11596 7.08422C9.29774 7.18141 9.4542 7.31985 9.57279 7.48845L9.62966 7.57087L9.54724 7.63103L9.5324 7.64092C9.37861 7.73371 9.25095 7.86409 9.16142 8.0198C9.07188 8.17551 9.02342 8.35144 9.02059 8.53103C9.02271 8.73382 9.08364 8.93164 9.196 9.10047C9.30836 9.2693 9.46731 9.40188 9.65356 9.48213C9.66829 9.48798 9.68173 9.49666 9.69312 9.50768L9.73927 9.55301L9.71702 9.61647C9.63014 9.88594 9.50406 10.1411 9.34284 10.3739C9.13433 10.6747 8.87471 11.0489 8.44779 11.0555H8.43131C8.28263 11.0529 8.13632 11.0178 8.00273 10.9525C7.87229 10.8877 7.72886 10.8533 7.58323 10.8519C7.43091 10.8535 7.28087 10.889 7.14394 10.9558C7.01482 11.018 6.87489 11.0546 6.73186 11.0637H6.70631C6.32142 11.0637 6.04697 10.7176 5.79971 10.3632C5.51095 9.97976 5.3283 9.52704 5.27013 9.05059C5.21197 8.57415 5.28035 8.09078 5.46839 7.64916C5.58748 7.44079 5.75845 7.26678 5.96467 7.14402C6.1709 7.02127 6.40538 6.95395 6.64532 6.94861H6.66015C6.85626 6.95887 7.04865 7.00613 7.22719 7.0879C7.31719 7.12976 7.41309 7.15755 7.51153 7.17032C7.60563 7.15588 7.69721 7.12813 7.7835 7.0879C7.99817 6.99269 8.22883 6.93873 8.46345 6.92883ZM9.33378 7.52554C9.23064 7.40763 9.10412 7.31245 8.96223 7.24605C8.82035 7.17965 8.66621 7.14347 8.5096 7.13982H8.46098C8.25305 7.15088 8.04901 7.20063 7.85933 7.28653C7.74917 7.33828 7.63099 7.37089 7.50988 7.38295C7.3838 7.3719 7.26071 7.33841 7.14642 7.28405C6.99311 7.21398 6.82834 7.17237 6.66015 7.16125H6.64861C6.44534 7.16618 6.24681 7.22366 6.07234 7.32808C5.89787 7.4325 5.75341 7.58031 5.65301 7.75713C5.48882 8.16455 5.43245 8.60742 5.48933 9.04298C5.54621 9.47854 5.71442 9.89208 5.97773 10.2437C6.19202 10.5527 6.42444 10.8536 6.70631 10.8536H6.72032C6.83867 10.8456 6.95432 10.8145 7.0607 10.7621C7.22398 10.6842 7.40235 10.6431 7.58323 10.6417C7.7577 10.6428 7.92973 10.6828 8.0868 10.7588C8.19426 10.8134 8.31247 10.8435 8.43295 10.847H8.44614C8.73955 10.842 8.94065 10.5882 9.16894 10.256C9.30214 10.0634 9.40965 9.85422 9.48872 9.63378C9.29877 9.53741 9.13694 9.3936 9.01892 9.21629C8.9009 9.03898 8.83069 8.83418 8.8151 8.62175C8.79951 8.40933 8.83908 8.19648 8.92995 8.00384C9.02082 7.8112 9.15993 7.6453 9.33378 7.52224V7.52554ZM16.2124 7.30713C17.1412 7.30713 17.7412 7.79257 17.7412 8.54339V11.0225H16.8346V10.6467C16.7003 10.7796 16.541 10.8845 16.3658 10.9552C16.1907 11.0259 16.0032 11.0612 15.8143 11.0588C15.6536 11.0763 15.491 11.0602 15.3368 11.0117C15.1826 10.9631 15.0401 10.8831 14.9184 10.7767C14.7967 10.6702 14.6984 10.5397 14.6298 10.3933C14.5611 10.247 14.5236 10.088 14.5195 9.92636C14.5195 9.2596 15.0338 8.86153 15.9667 8.80631L16.8049 8.75686V8.59202C16.8049 8.26235 16.5989 8.09751 16.1926 8.09751C16.06 8.08092 15.9258 8.11225 15.8143 8.18585C15.7028 8.25944 15.6212 8.37046 15.5843 8.49889L15.5678 8.58131H14.6893V8.47334C14.7375 8.11706 14.9247 7.79434 15.2101 7.57567C15.4955 7.357 15.8558 7.26099 16.2124 7.30713ZM17.531 10.814V8.54339C17.531 7.91949 17.0143 7.51565 16.2124 7.51565C15.9296 7.48146 15.6438 7.54911 15.4064 7.70649C15.169 7.86386 14.9954 8.10067 14.9167 8.37444H15.3956C15.4584 8.21877 15.5697 8.08744 15.7129 7.99987C15.8561 7.9123 16.0237 7.87314 16.1909 7.88817C16.7151 7.88817 17.0151 8.14532 17.0151 8.59284V8.95466L15.975 9.01565C15.4063 9.04944 14.728 9.23488 14.728 9.92719C14.7317 10.0612 14.7635 10.193 14.8214 10.3139C14.8792 10.4349 14.9618 10.5423 15.0638 10.6294C15.1658 10.7164 15.285 10.781 15.4135 10.819C15.5421 10.8571 15.6772 10.8677 15.8102 10.8503C16.014 10.8566 16.2158 10.8083 16.3946 10.7103C16.5735 10.6124 16.7228 10.4683 16.8272 10.2931L16.8569 10.2371H17.0431V10.8091L17.531 10.814ZM17.7783 7.35246H18.7953L19.6113 9.94614L20.4272 7.35246H21.4203L20.0472 11.1437C19.7324 12.0148 19.3442 12.3239 18.5637 12.3239C18.4581 12.3242 18.3526 12.3168 18.2481 12.3016L18.1706 12.2802V11.5055L18.2909 11.5211C18.3313 11.5261 18.4417 11.5327 18.4978 11.5327C18.7879 11.5327 18.9321 11.4181 19.031 11.1099L19.0887 10.9327L17.7783 7.35246ZM18.6387 7.5618H18.0816L19.3178 10.9277L19.2354 11.175C19.2029 11.3431 19.1102 11.4935 18.9747 11.5982C18.8393 11.7029 18.6703 11.7546 18.4994 11.7437C18.4706 11.7437 18.4277 11.7437 18.3849 11.7437V12.1063C18.4434 12.1063 18.52 12.1129 18.5645 12.1129C19.2494 12.1129 19.561 11.8599 19.8461 11.072L21.1178 7.56427H20.5821L19.6953 10.3797H19.5247L18.6387 7.5618ZM17.0184 9.24312V9.62389C17.0118 9.74761 16.9803 9.86873 16.9259 9.98003C16.8715 10.0913 16.7952 10.1905 16.7015 10.2717C16.6079 10.3528 16.4989 10.4143 16.381 10.4524C16.2631 10.4905 16.1388 10.5044 16.0154 10.4934C15.5588 10.4934 15.2522 10.2585 15.2522 9.90823C15.2522 9.69971 15.3585 9.34367 16.0681 9.30164L17.0184 9.24312ZM16.0129 10.2841C16.1085 10.2951 16.2053 10.2866 16.2975 10.259C16.3897 10.2315 16.4753 10.1855 16.5492 10.1238C16.623 10.0621 16.6835 9.98608 16.7271 9.90028C16.7706 9.81449 16.7963 9.72073 16.8025 9.62471V9.46894L16.0788 9.51427C15.6667 9.53817 15.4632 9.67169 15.4632 9.91153C15.4632 10.1514 15.6742 10.2841 16.0129 10.2841Z" fill="black" style="fill:black;fill-opacity:1;"/>
</svg>
