<svg width="256" height="256" viewBox="0 0 256 256" fill="none" xmlns="http://www.w3.org/2000/svg">
<circle cx="128" cy="128" r="128" fill="#F5F1EC" style="fill:#F5F1EC;fill:color(display-p3 0.9608 0.9451 0.9255);fill-opacity:1;"/>
<path d="M156.146 65.8447C174.127 78.7987 186.296 103.757 186.296 132.431C186.296 174.425 160.17 208.47 127.956 208.47C95.7421 208.47 69.6162 174.425 69.6162 132.431C69.6162 103.764 81.7926 78.7987 99.7662 65.8447C71.7287 77.0452 51.9126 104.471 51.9126 136.534C51.9126 178.556 85.9553 212.629 127.956 212.629C169.957 212.629 204 178.556 204 136.534C204 104.471 184.191 77.0452 156.146 65.8447Z" fill="#452C44" style="fill:#452C44;fill:color(display-p3 0.2706 0.1725 0.2667);fill-opacity:1;"/>
<path d="M127.958 80.6793C127.958 66.6856 139.297 55.3396 153.281 55.3396C139.297 55.3396 127.958 43.9936 127.958 30C127.958 43.9936 116.62 55.3396 102.636 55.3396C116.62 55.3396 127.958 66.6856 127.958 80.6793Z" fill="#C2A88A" style="fill:#C2A88A;fill:color(display-p3 0.7608 0.6588 0.5412);fill-opacity:1;"/>
</svg>
