<svg width="23" height="16" viewBox="0 0 23 16" fill="none" xmlns="http://www.w3.org/2000/svg">
<path d="M0.0527344 0.523438H22.8981V4.40839C15.283 4.4032 7.66785 4.4032 0.0527344 4.40839V0.523438ZM2.57726 1.09847C2.36688 1.51221 2.15494 1.92517 1.96405 2.34514C2.20637 2.63266 2.44324 2.92407 2.68244 3.2147C2.89126 3.22405 3.0993 3.22327 3.30578 3.22249C5.55604 3.21626 7.80629 3.23184 10.0565 3.2147C10.0643 2.71681 10.0612 2.21892 10.0565 1.72103C9.86247 1.70849 9.66779 1.70849 9.47372 1.72103C9.46047 1.90491 9.4519 2.0888 9.4371 2.27268C9.34282 2.27736 9.24776 2.28125 9.15426 2.28359C9.15426 2.09113 9.15426 1.89868 9.13867 1.707C8.92362 1.707 8.70857 1.707 8.49352 1.707C8.47668 1.90732 8.47356 2.10856 8.48417 2.3093C8.33814 2.32361 8.19143 2.32985 8.04471 2.328C6.33053 2.31865 4.61635 2.33891 2.90217 2.31709C3.06346 1.90569 3.27617 1.51377 3.4211 1.09535C3.14449 1.09379 2.85776 1.09613 2.57726 1.09847ZM18.1296 1.05483C18.1296 1.28859 18.0579 1.54961 18.2293 1.74206C18.3329 1.86673 18.4101 2.0849 18.6111 2.05373C19.1955 2.05373 19.7798 2.05373 20.3642 2.05373C20.4125 2.16671 20.4593 2.28047 20.5006 2.39579C19.8328 2.39579 19.1651 2.39579 18.4973 2.39579C18.4132 2.38722 18.3041 2.41449 18.2503 2.3319C18.0524 2.11607 17.888 1.87297 17.6839 1.66337C17.2405 1.66337 16.7972 1.66337 16.3546 1.66337C16.3546 2.17996 16.3632 2.69655 16.3546 3.21314C15.6261 3.2186 14.8968 3.22873 14.169 3.20847C14.1488 2.95084 14.1514 2.69192 14.1768 2.43475C14.8001 2.42852 15.4196 2.44176 16.0406 2.42774C16.0406 2.17139 16.0406 1.91582 16.0406 1.66025C15.0993 1.66571 14.1573 1.66025 13.2161 1.66025C13.2106 2.37865 13.2161 3.09705 13.2161 3.81622C14.5407 3.83336 15.859 3.82869 17.1805 3.81622C17.1852 3.43443 17.1704 3.05107 17.1914 2.6685C17.4002 2.75966 17.581 2.94744 17.8218 2.93732C18.7755 2.93732 19.7292 2.93732 20.6829 2.93732C20.7803 2.93264 20.9003 2.95134 20.9626 2.8594C21.1185 2.69343 21.2743 2.52981 21.413 2.3506C21.316 2.12428 21.1959 1.9086 21.0546 1.707C20.3759 1.65402 19.6949 1.70077 19.0147 1.67817C19.0186 1.57922 19.024 1.47948 19.0287 1.38053C19.6006 1.38053 20.1725 1.35559 20.7429 1.33222C20.7024 1.24028 20.6603 1.14833 20.6198 1.05639C19.7837 1.04159 18.9563 1.05483 18.1296 1.05483ZM3.78653 1.13197C3.78186 1.22158 3.77874 1.31196 3.77874 1.40234C3.98366 1.40702 4.18859 1.40702 4.39351 1.40234C4.39818 1.30806 4.40052 1.21378 4.40208 1.1195C4.19702 1.10275 3.9908 1.10667 3.78653 1.13119M4.80569 1.12574C4.80569 1.21846 4.80024 1.3104 4.80102 1.40312C5.00282 1.40312 5.20619 1.40702 5.40799 1.40312C5.40799 1.30962 5.40799 1.21534 5.40799 1.12106C5.20662 1.10236 5.00395 1.10236 4.80257 1.12106M9.42697 1.12106C9.42697 1.21378 9.42151 1.30651 9.42151 1.40001C9.6241 1.40001 9.82668 1.40001 10.0285 1.40001C10.0285 1.30884 10.0285 1.21612 10.0285 1.12418C9.82768 1.10463 9.62544 1.10463 9.42463 1.12418M11.0188 2.00698C11.0227 2.31865 11.0188 2.62409 11.0227 2.93342C11.4357 2.94822 11.8494 2.94199 12.2632 2.93732C12.2577 2.62565 12.2686 2.31398 12.2343 2.00231C11.8292 2.00231 11.424 1.98984 11.0188 2.00932M17.6722 3.56767C17.6597 3.66351 17.6472 3.75934 17.6348 3.85518C17.8397 3.86375 18.0454 3.86219 18.2511 3.85518C18.2511 3.76246 18.2511 3.67052 18.2511 3.5778C18.0571 3.56689 17.8615 3.56533 17.6698 3.56767M18.5908 3.57468C18.5908 3.66896 18.5908 3.76246 18.5908 3.85674C18.7918 3.85674 18.9929 3.86141 19.1947 3.86141C19.1947 3.76558 19.1947 3.66974 19.1947 3.5739C18.9956 3.56471 18.7961 3.56575 18.5971 3.57702L18.5908 3.57468Z" fill="#0873B9" style="fill:#0873B9;fill:color(display-p3 0.0314 0.4510 0.7255);fill-opacity:1;"/>
<path d="M0.0527344 4.57812C7.66785 4.57812 15.283 4.57812 22.8981 4.57812V11.6483C15.283 11.6483 7.66785 11.6483 0.0527344 11.6483V4.57812ZM4.24858 5.13289C4.23845 7.08628 4.25482 9.03967 4.24858 10.9931C4.39121 11.015 4.53517 11.0272 4.67946 11.0297C5.87861 11.0297 7.07854 11.0297 8.27691 11.0297C8.44287 11.0297 8.60728 11.0063 8.77246 10.9923C8.77636 10.291 8.77246 9.59444 8.77246 8.89552C8.80583 8.54465 8.8178 8.19208 8.8083 7.83975C9.09192 8.0735 9.32801 8.35712 9.58748 8.61424C10.2256 9.2555 10.849 9.91079 11.4902 10.5489C11.6098 10.6908 11.7443 10.8193 11.8915 10.9323C11.9785 10.9402 12.0659 10.943 12.1533 10.9409C14.2306 10.9323 16.3086 10.9502 18.3867 10.9323C18.3285 10.8486 18.2599 10.7726 18.1825 10.7063C17.5724 10.2061 16.9795 9.6856 16.3756 9.17914C15.8637 8.77085 15.3744 8.3353 14.8726 7.91533C14.8266 7.85611 14.7121 7.79611 14.7659 7.71118C14.9918 7.53743 15.2373 7.38783 15.457 7.20394C15.9946 6.75903 16.5852 6.37958 17.1268 5.93856C17.465 5.70756 17.79 5.45757 18.0999 5.18978C16.1762 5.16718 14.2508 5.18978 12.3255 5.17965C12.225 5.17457 12.1242 5.1819 12.0255 5.20147C11.1684 5.83026 10.3479 6.50502 9.49631 7.14083C9.29189 7.319 9.07179 7.47834 8.83869 7.6169C8.80441 6.78864 8.83869 5.95882 8.82077 5.13056C7.29905 5.1329 5.77342 5.12744 4.24858 5.12978V5.13289Z" fill="#0873B9" style="fill:#0873B9;fill:color(display-p3 0.0314 0.4510 0.7255);fill-opacity:1;"/>
<path d="M0.0527344 11.8125C7.66785 11.8177 15.283 11.8177 22.8981 11.8125V15.7512H0.0527344V11.8125ZM19.3201 12.3166C19.3155 12.4904 19.3155 12.6634 19.3069 12.8371C19.1074 12.8371 18.9079 12.8371 18.7093 12.8426C18.7056 12.9844 18.7056 13.1262 18.7093 13.268C18.9064 13.2766 19.1043 13.275 19.3014 13.268C19.3443 13.6654 19.3014 14.0667 19.3256 14.4648C19.3259 14.5354 19.3421 14.605 19.3732 14.6685C19.4042 14.7319 19.4492 14.7875 19.5048 14.831C19.7191 14.9585 19.969 15.0132 20.217 14.9869C20.5707 14.9791 20.926 15.0001 21.2797 14.9728C21.2797 14.8222 21.2797 14.6718 21.2797 14.5217C21.0249 14.5039 20.7692 14.499 20.5138 14.5069C20.5084 14.0814 20.5091 13.6568 20.5138 13.2314C20.7795 13.2236 21.0452 13.2244 21.3125 13.2267C21.3203 13.0989 21.3242 12.9711 21.321 12.8433C21.0624 12.8387 20.8037 12.8371 20.5419 12.8433C20.5296 12.6691 20.5265 12.4943 20.5325 12.3197C20.1289 12.3197 19.7253 12.3197 19.3225 12.3197M3.13436 13.1386C3.12657 13.0654 3.11878 12.9922 3.11177 12.9189C2.73621 12.9127 2.36065 12.9189 1.98508 12.9189C1.98508 13.596 1.96794 14.2747 1.99288 14.951C2.38246 14.951 2.77828 14.951 3.17099 14.951C3.17644 14.549 3.1593 14.1469 3.17722 13.7456C3.21228 13.5119 3.46863 13.3888 3.68134 13.3288C4.01651 13.2327 4.37468 13.2564 4.69427 13.3958C4.7698 13.4341 4.83336 13.4925 4.87801 13.5645C4.92266 13.6365 4.9467 13.7194 4.9475 13.8041C4.95997 14.1796 4.94283 14.556 4.95295 14.9323C5.34955 14.9362 5.74771 14.9502 6.14353 14.9245C6.13652 14.4983 6.15054 14.0721 6.13574 13.6467C6.12016 13.2999 5.79212 13.0748 5.49526 12.9517C5.11109 12.8118 4.70131 12.7563 4.29379 12.789C3.88627 12.8217 3.49056 12.9417 3.13359 13.141M10.4204 13.3303C10.2836 13.4572 10.1956 13.6282 10.172 13.8133C10.1484 13.9985 10.1905 14.186 10.2911 14.3433C10.4148 14.5075 10.5701 14.6455 10.7477 14.7492C10.9254 14.8529 11.1219 14.9202 11.3258 14.9471C11.9281 15.0671 12.5465 15.0816 13.1538 14.99C13.6532 14.9455 14.1192 14.7202 14.4643 14.3565C14.0958 14.3362 13.7272 14.3487 13.3587 14.344C13.0673 14.3207 12.8468 14.563 12.5592 14.5645C12.2611 14.6014 11.9585 14.557 11.6835 14.436C11.6175 14.3958 11.5608 14.3422 11.5172 14.2785C11.4735 14.2148 11.4439 14.1426 11.4302 14.0667C12.4618 14.0246 13.4966 14.0705 14.529 14.0441C14.5253 13.8299 14.4587 13.6216 14.3375 13.4451C14.2163 13.2686 14.0457 13.1317 13.8472 13.0514C13.2387 12.8102 12.5799 12.7234 11.9297 12.7989C11.3838 12.8142 10.8563 12.9991 10.4204 13.328V13.3303Z" fill="#0873B9" style="fill:#0873B9;fill:color(display-p3 0.0314 0.4510 0.7255);fill-opacity:1;"/>
<path d="M11.457 13.6714C11.5791 13.5152 11.7407 13.3945 11.9251 13.3217C12.1095 13.249 12.31 13.2268 12.5058 13.2576C12.6604 13.2504 12.8137 13.2882 12.9472 13.3665C13.0807 13.4448 13.1886 13.5602 13.2577 13.6986C12.6577 13.7049 12.0554 13.7166 11.457 13.6714Z" fill="#0873B9" style="fill:#0873B9;fill:color(display-p3 0.0314 0.4510 0.7255);fill-opacity:1;"/>
<path d="M4.24781 5.12891C5.77265 5.12891 7.29827 5.12891 8.82389 5.12891C8.84259 5.95717 8.80752 6.78777 8.84181 7.61525C9.07491 7.47669 9.29501 7.31735 9.49943 7.13917C10.3518 6.50337 11.1723 5.82861 12.0286 5.19981C12.1273 5.18025 12.2281 5.17292 12.3286 5.178C14.2532 5.18657 16.1785 5.16553 18.1031 5.18813C17.7931 5.45592 17.4682 5.70592 17.1299 5.93691C16.5883 6.37792 15.9985 6.75738 15.4601 7.20229C15.2412 7.38617 14.9926 7.53578 14.769 7.70953C14.7152 7.79524 14.8298 7.85446 14.8757 7.91368C15.3775 8.33365 15.8661 8.77076 16.3788 9.17749C16.9834 9.68395 17.5756 10.2037 18.1857 10.7047C18.263 10.771 18.3316 10.8469 18.3898 10.9306C16.3125 10.9493 14.2345 10.9306 12.1564 10.9392C12.0691 10.9414 11.9816 10.9385 11.8946 10.9306C11.7475 10.8176 11.6129 10.6891 11.4933 10.5473C10.8529 9.90914 10.2287 9.25385 9.5906 8.61259C9.3288 8.35624 9.09349 8.07341 8.81143 7.8381C8.82092 8.19042 8.80895 8.543 8.77558 8.89387C8.76935 9.59513 8.77558 10.2917 8.77558 10.9906C8.61039 11.0047 8.44599 11.0272 8.28002 11.028C7.08088 11.028 5.88173 11.028 4.68258 11.028C4.53829 11.0256 4.39433 11.0134 4.2517 10.9914C4.25404 9.03568 4.2369 7.08229 4.24781 5.12891Z" fill="#FAE80C" style="fill:#FAE80C;fill:color(display-p3 0.9804 0.9098 0.0471);fill-opacity:1;"/>
</svg>
