<svg width="27" height="18" viewBox="0 0 27 18" fill="none" xmlns="http://www.w3.org/2000/svg">
<path d="M25.3129 0H1.68753C0.755531 0 0 0.755531 0 1.68753V16.3125C0 17.2445 0.755531 18 1.68753 18H25.3129C26.2449 18 27.0004 17.2445 27.0004 16.3125V1.68753C27.0004 0.755531 26.2449 0 25.3129 0Z" fill="#212B36" style="fill:#212B36;fill:color(display-p3 0.1294 0.1686 0.2118);fill-opacity:1;"/>
<path d="M16.3775 4.30859H10.6289V13.6912H16.3775V4.30859Z" fill="#F26122" style="fill:#F26122;fill:color(display-p3 0.9490 0.3804 0.1333);fill-opacity:1;"/>
<path d="M11.2507 8.99999C11.2477 8.09894 11.4485 7.20888 11.8382 6.39646C12.2279 5.58403 12.7964 4.87029 13.501 4.30866C12.6211 3.61831 11.5647 3.18934 10.4526 3.07074C9.34055 2.95213 8.21751 3.14868 7.2118 3.63793C6.20609 4.12718 5.35825 4.88941 4.7651 5.83757C4.17196 6.78573 3.85742 7.88158 3.85742 8.99999C3.85742 10.1184 4.17196 11.2142 4.7651 12.1624C5.35825 13.1106 6.20609 13.8728 7.2118 14.362C8.21751 14.8513 9.34055 15.0478 10.4526 14.9292C11.5647 14.8106 12.6211 14.3817 13.501 13.6913C12.7951 13.1308 12.2258 12.4173 11.8359 11.6046C11.4461 10.7919 11.246 9.90132 11.2507 8.99999Z" fill="#EA1D25" style="fill:#EA1D25;fill:color(display-p3 0.9176 0.1137 0.1451);fill-opacity:1;"/>
<path d="M23.1507 8.99933C23.1478 10.1176 22.8311 11.2125 22.2367 12.1596C21.6423 13.1068 20.7939 13.868 19.7882 14.3568C18.7824 14.8456 17.6597 15.0423 16.5477 14.9246C15.4357 14.8068 14.3791 14.3793 13.498 13.6907C14.2078 13.1318 14.7815 12.4193 15.1761 11.6067C15.5707 10.7941 15.7759 9.90266 15.7762 8.99933C15.7759 8.09601 15.5707 7.20452 15.1761 6.39194C14.7815 5.57936 14.2078 4.86685 13.498 4.30801C14.3779 3.61497 15.4351 3.18372 16.5486 3.06366C17.6622 2.9436 18.787 3.13958 19.7943 3.62915C20.8017 4.11873 21.6507 4.8821 22.2443 5.83186C22.8379 6.78161 23.152 7.87934 23.1507 8.99933Z" fill="#F69E1E" style="fill:#F69E1E;fill:color(display-p3 0.9647 0.6196 0.1176);fill-opacity:1;"/>
<path d="M22.9944 13.0199H22.916V12.5566H23.0282L23.1742 12.8823L23.3092 12.5566H23.4214V13.0173H23.3429V12.6689L23.2197 12.9726H23.1294L22.9944 12.6689V13.0182V13.0199ZM22.6569 13.0199H22.5894V12.636H22.4316V12.5566H22.8257V12.636H22.6569V13.0173V13.0199Z" fill="#F69E1E" style="fill:#F69E1E;fill:color(display-p3 0.9647 0.6196 0.1176);fill-opacity:1;"/>
</svg>
