<svg width="228" height="348" viewBox="0 0 228 348" fill="none" xmlns="http://www.w3.org/2000/svg">
<path d="M130.753 79.4021L131.599 77.9524L131.581 77.9611C134.882 72.3255 139.553 64.4826 144.497 56.852C149.888 48.5318 155.582 40.501 160.167 35.8512C179.792 15.9693 204.192 17.3731 231.05 25.8868C257.777 34.3587 278.802 61.9282 274.607 89.5449C273.935 93.9579 272.684 98.373 271.272 102.793C270.75 104.426 270.205 106.063 269.66 107.702C268.735 110.482 267.81 113.263 266.998 116.023C264.412 124.81 262.904 133.594 266.052 142.212L266.521 142.04L266.052 142.212C270.557 154.545 281.608 160.208 294.206 164.319C298.155 165.608 302.287 166.753 306.433 167.902C308.894 168.584 311.359 169.267 313.793 169.983C320.35 171.909 326.721 174.078 332.344 177.11C357.255 190.54 366.816 223.728 359.468 251.191L359.951 251.32L359.468 251.191C352.121 278.661 331.327 300.725 308.159 317.394C271.72 343.611 221.659 358.744 182.461 337.302C169.141 330.011 157.738 318.934 146.412 307.932C143.252 304.862 140.097 301.798 136.909 298.823C122.334 285.227 107.067 273.534 87.4153 272.191C81.4052 271.781 75.4064 272.441 69.4619 273.094L69.0841 273.136C63.0003 273.804 56.9724 274.442 50.953 273.942C23.3436 271.628 2.21386 244.042 1.18088 216.232L1.18087 216.231C0.658248 202.295 2.97101 186.574 7.83028 172.449C12.6922 158.317 20.0843 145.837 29.6794 138.324C34.9211 134.222 42.6445 130.518 51.6279 126.757C55.7422 125.035 60.1096 123.305 64.6126 121.521C65.0199 121.36 65.4282 121.198 65.8376 121.036C70.7715 119.081 75.8519 117.057 80.9152 114.91C101.135 106.337 121.225 95.7367 130.753 79.4021Z" fill="#F1E3CF" stroke="#FFF8ED" style="fill:#F1E3CF;fill:color(display-p3 0.9451 0.8902 0.8118);fill-opacity:1;stroke:#FFF8ED;stroke:color(display-p3 1.0000 0.9714 0.9305);stroke-opacity:1;"/>
<path d="M116.679 242.251C144.039 242.481 170.669 251.131 193.209 266.681C252.159 307.341 315.999 287.541 335.589 270.251C358.339 250.161 369.989 219.451 370.899 189.091C371.799 158.731 362.789 128.701 349.519 101.311C339.139 79.9112 325.719 59.3412 306.709 44.9912C288.129 30.9712 265.439 23.7412 243.099 17.1912C214.379 8.78116 184.929 1.02116 155.039 1.79116C130.669 2.41116 103.159 11.6412 94.4992 34.3412C87.1292 53.7012 96.0392 76.5412 88.3392 95.7712C77.5492 122.691 41.1292 128.751 23.1192 151.491C2.09924 178.021 8.63924 214.201 28.3692 226.251C48.9392 238.811 86.3592 242.001 116.679 242.251Z" stroke="#FFF8ED" style="stroke:#FFF8ED;stroke:color(display-p3 1.0000 0.9714 0.9305);stroke-opacity:1;" stroke-width="3.14" stroke-miterlimit="10"/>
</svg>
