<svg width="27" height="19" viewBox="0 0 27 19" fill="none" xmlns="http://www.w3.org/2000/svg">
<g clip-path="url(#clip0_436_12657)">
<path d="M24.9497 0.841797H1.7089C0.953871 0.841797 0.341797 1.45387 0.341797 2.2089V16.7911C0.341797 17.5462 0.953871 18.1582 1.7089 18.1582H24.9497C25.7047 18.1582 26.3168 17.5462 26.3168 16.7911V2.2089C26.3168 1.45387 25.7047 0.841797 24.9497 0.841797Z" stroke="black" style="stroke:black;stroke-opacity:1;"/>
<path d="M4.07875 11.7524H3.63444V10.6026H4.07875C4.15506 10.6 4.2311 10.613 4.30224 10.6407C4.37337 10.6685 4.4381 10.7105 4.49247 10.7641C4.54685 10.8177 4.58973 10.8818 4.61849 10.9525C4.64725 11.0233 4.6613 11.0991 4.65977 11.1755C4.66177 11.2521 4.64807 11.3284 4.61953 11.3995C4.59098 11.4707 4.54819 11.5353 4.49377 11.5893C4.43936 11.6434 4.37448 11.6857 4.30311 11.7137C4.23174 11.7418 4.15539 11.7549 4.07875 11.7524ZM4.12113 10.0647H3.05273V13.1837H3.63375V12.291H4.11634C4.26432 12.2943 4.41146 12.2678 4.54898 12.2131C4.68651 12.1584 4.81161 12.0765 4.91685 11.9724C5.02209 11.8683 5.1053 11.7441 5.16154 11.6072C5.21778 11.4703 5.24589 11.3235 5.2442 11.1755C5.24552 11.0281 5.21725 10.882 5.16107 10.7458C5.1049 10.6096 5.02196 10.4861 4.91717 10.3825C4.81239 10.2789 4.68788 10.1974 4.55102 10.1428C4.41417 10.0882 4.26775 10.0617 4.12044 10.0647" fill="black" style="fill:black;fill-opacity:1;"/>
<path d="M6.72303 12.7055C6.62193 12.7054 6.52189 12.685 6.4288 12.6456C6.33571 12.6062 6.25145 12.5485 6.18099 12.476C6.11053 12.4035 6.0553 12.3177 6.01855 12.2235C5.9818 12.1293 5.96428 12.0287 5.96702 11.9277C5.96473 11.8271 5.98263 11.7272 6.01965 11.6337C6.05666 11.5402 6.11206 11.4551 6.18254 11.3834C6.25303 11.3117 6.33718 11.2549 6.43001 11.2163C6.52285 11.1777 6.62249 11.1581 6.72303 11.1587C6.82288 11.1592 6.92162 11.1796 7.01351 11.2187C7.10539 11.2578 7.18856 11.3148 7.25817 11.3864C7.32779 11.458 7.38245 11.5427 7.41896 11.6356C7.45547 11.7286 7.4731 11.8278 7.47083 11.9277C7.47431 12.0282 7.45757 12.1285 7.4216 12.2224C7.38563 12.3164 7.33116 12.4022 7.26143 12.4747C7.1917 12.5473 7.10811 12.6051 7.01563 12.6447C6.92315 12.6844 6.82365 12.7051 6.72303 12.7055ZM7.44076 10.9837C7.34013 10.8707 7.21623 10.7809 7.07759 10.7203C6.93894 10.6598 6.78884 10.63 6.63758 10.633C6.46917 10.6324 6.30241 10.6662 6.14752 10.7323C5.99264 10.7984 5.85289 10.8955 5.73685 11.0175C5.62081 11.1396 5.53093 11.2841 5.47271 11.4421C5.4145 11.6001 5.38918 11.7684 5.3983 11.9366C5.392 12.1031 5.41901 12.2692 5.47776 12.4251C5.5365 12.581 5.6258 12.7237 5.7404 12.8447C5.855 12.9656 5.99261 13.0625 6.14515 13.1296C6.29768 13.1967 6.46208 13.2326 6.6287 13.2353C6.78354 13.2372 6.93685 13.2045 7.07737 13.1394C7.21789 13.0744 7.34206 12.9787 7.44076 12.8593V13.184H8.01768V10.687H7.44076V10.9837Z" fill="black" style="fill:black;fill-opacity:1;"/>
<path d="M9.55978 12.3672L8.86324 10.6836H8.24805L9.27338 13.0589L8.74772 14.3365H9.33353L10.825 10.6836H10.218L9.55978 12.3672Z" fill="black" style="fill:black;fill-opacity:1;"/>
<path d="M19.9448 7.55748H19.9291L19.2585 5.26758H18.1758V8.15491H18.8935L18.8532 5.78571H18.8689L19.5894 8.15491H20.6284V5.26758H19.9059L19.9448 7.55748Z" fill="black" style="fill:black;fill-opacity:1;"/>
<path d="M6.81624 5.53368H6.83264L7.22158 8.18108H8.00562L7.46766 5.26367H6.16891L5.62891 8.18108H6.41773L6.81624 5.53368Z" fill="black" style="fill:black;fill-opacity:1;"/>
<path d="M10.5792 5.26367L10.2224 7.49479H10.206L9.84368 5.26367H8.65019L8.58594 8.18108H9.31597L9.33443 5.55828H9.35083L9.83821 8.18108H10.5785L11.0659 5.55897H11.0823L11.1007 8.18176H11.8308L11.7686 5.26367H10.5792Z" fill="black" style="fill:black;fill-opacity:1;"/>
<path d="M4.10755 8.2964C4.63526 8.2964 5.06931 8.11662 5.13904 7.62925C5.16609 7.4709 5.16609 7.30911 5.13904 7.15076C5.016 6.53966 3.90864 6.35784 3.82661 6.01606C3.81609 5.96556 3.81609 5.91344 3.82661 5.86295C3.83751 5.80235 3.87122 5.74823 3.92082 5.71173C3.97041 5.67524 4.0321 5.65915 4.0932 5.66677C4.12925 5.6631 4.16566 5.66735 4.19989 5.67922C4.23413 5.69108 4.26536 5.71029 4.2914 5.73548C4.31744 5.76067 4.33766 5.79125 4.35065 5.82508C4.36365 5.8589 4.3691 5.89515 4.36662 5.9313V6.11176H5.08845V5.90669C5.08845 5.27099 4.51769 5.17188 4.10482 5.17188C3.586 5.17188 3.1622 5.34345 3.08496 5.8192C3.06139 5.94962 3.06371 6.0834 3.09179 6.21293C3.21825 6.80898 4.25383 6.98124 4.40558 7.35924C4.42838 7.42918 4.43028 7.50425 4.41105 7.57525C4.39751 7.63799 4.36056 7.69321 4.30773 7.72966C4.2549 7.76611 4.19015 7.78104 4.12669 7.77143C4.08952 7.77604 4.05178 7.77261 4.01605 7.76135C3.98032 7.75009 3.94743 7.73128 3.91961 7.70618C3.89179 7.68109 3.8697 7.6503 3.85483 7.61592C3.83997 7.58153 3.83267 7.54434 3.83345 7.50689V7.22116H3.05078V7.44606C3.05078 8.0968 3.56276 8.29366 4.11097 8.29366" fill="black" style="fill:black;fill-opacity:1;"/>
<path d="M13.3139 6.02358C13.3024 5.97377 13.3012 5.92211 13.3105 5.87183C13.3214 5.81191 13.3548 5.75842 13.4038 5.72232C13.4529 5.68623 13.5139 5.67027 13.5744 5.67771C13.6099 5.67435 13.6457 5.67876 13.6794 5.69064C13.713 5.70251 13.7437 5.72156 13.7692 5.74646C13.7948 5.77137 13.8146 5.80153 13.8274 5.83487C13.8401 5.8682 13.8454 5.90391 13.843 5.93951V6.11791H14.5641V5.91285C14.5641 5.28398 13.9988 5.18555 13.5901 5.18555C13.0774 5.18555 12.657 5.35507 12.5805 5.82672C12.5569 5.95576 12.5592 6.08821 12.5873 6.21635C12.7124 6.80693 13.7391 6.97782 13.8861 7.35173C13.9085 7.42101 13.9104 7.49533 13.8915 7.56568C13.8781 7.62782 13.8416 7.68252 13.7892 7.7186C13.7369 7.75468 13.6727 7.76942 13.6099 7.75981C13.5731 7.76443 13.5357 7.76107 13.5003 7.74995C13.4649 7.73883 13.4323 7.72022 13.4047 7.69538C13.3772 7.67054 13.3553 7.64005 13.3406 7.60599C13.3258 7.57194 13.3186 7.5351 13.3194 7.49801V7.21775H12.5449V7.44059C12.5449 8.08518 13.0521 8.27931 13.5949 8.27931C14.1178 8.27931 14.547 8.1009 14.6161 7.619C14.6429 7.46223 14.6429 7.30206 14.6161 7.14529C14.4937 6.54035 13.398 6.35989 13.3173 6.02153" fill="black" style="fill:black;fill-opacity:1;"/>
<path d="M17.361 5.26367H16.6255V7.42233C16.6266 7.4596 16.6243 7.4969 16.6187 7.53375C16.6063 7.59721 16.5709 7.65386 16.5193 7.69284C16.4677 7.73182 16.4035 7.75038 16.3391 7.74497C16.2747 7.75038 16.2105 7.73182 16.1589 7.69284C16.1073 7.65386 16.0719 7.59721 16.0595 7.53375C16.0536 7.49693 16.0513 7.45961 16.0527 7.42233V5.26367H15.3145V7.35534C15.3145 7.40934 15.3186 7.51871 15.3213 7.54742C15.3726 8.09426 15.7998 8.26857 16.3391 8.26857C16.8784 8.26857 17.3056 8.09221 17.3569 7.54742C17.3569 7.51871 17.3651 7.41071 17.3644 7.35534L17.361 5.26367Z" fill="black" style="fill:black;fill-opacity:1;"/>
<path d="M22.4265 6.5424V6.96757H22.7259V7.39137C22.727 7.42842 22.7247 7.46548 22.7191 7.50211C22.7043 7.56799 22.6657 7.62609 22.6107 7.66521C22.5557 7.70434 22.4881 7.72172 22.421 7.71401C22.354 7.72172 22.2864 7.70434 22.2314 7.66521C22.1764 7.62609 22.1378 7.56799 22.123 7.50211C22.1177 7.46544 22.1154 7.42841 22.1162 7.39137V6.05776C22.1156 6.01192 22.1195 5.96613 22.1278 5.92105C22.1424 5.85658 22.1799 5.79958 22.2333 5.76063C22.2867 5.72167 22.3524 5.70338 22.4183 5.70915C22.4847 5.70132 22.5516 5.71878 22.6057 5.75805C22.6597 5.79731 22.6971 5.85551 22.7102 5.92105C22.7161 5.95789 22.7191 5.99515 22.7191 6.03247V6.19584H23.4546V6.09877C23.4546 6.09877 23.4546 5.99966 23.4477 5.9067C23.3937 5.35985 22.9412 5.18555 22.4224 5.18555C21.9036 5.18555 21.4654 5.36122 21.3971 5.9067C21.3909 5.95523 21.3848 6.04682 21.3848 6.09877V7.32917C21.3848 7.38385 21.3848 7.42418 21.395 7.52125C21.4436 8.05305 21.9036 8.2424 22.4203 8.2424C22.9371 8.2424 23.3985 8.05237 23.4457 7.52125C23.4546 7.42418 23.4559 7.38454 23.4559 7.32917V6.54718L22.4265 6.5424Z" fill="black" style="fill:black;fill-opacity:1;"/>
</g>
<defs>
<clipPath id="clip0_436_12657">
<rect width="26.6586" height="18" fill="white" style="fill:white;fill-opacity:1;" transform="translate(0 0.5)"/>
</clipPath>
</defs>
</svg>
