<svg width="27" height="18" viewBox="0 0 27 18" fill="none" xmlns="http://www.w3.org/2000/svg">
<path d="M25.3129 0H1.68753C0.755531 0 0 0.755531 0 1.68753V16.3125C0 17.2445 0.755531 18 1.68753 18H25.3129C26.2449 18 27.0004 17.2445 27.0004 16.3125V1.68753C27.0004 0.755531 26.2449 0 25.3129 0Z" fill="#2A2A6C" style="fill:#2A2A6C;fill:color(display-p3 0.1647 0.1647 0.4235);fill-opacity:1;"/>
<path d="M14.7226 11.6658C14.2119 11.6622 13.7056 11.5709 13.2258 11.3958L13.473 10.271C13.8649 10.4714 14.2985 10.5763 14.7386 10.5773C14.7808 10.5773 14.8233 10.5773 14.8661 10.5773C15.239 10.5773 15.6651 10.3073 15.6651 10.0711C15.6651 9.83482 15.4634 9.71669 14.9673 9.42981L14.9521 9.42138C14.4602 9.13703 13.786 8.74637 13.786 8.01229C13.786 6.99978 14.7142 6.29102 16.0372 6.29102C16.4634 6.29209 16.8861 6.36806 17.286 6.51546L17.0514 7.63851C16.711 7.48312 16.3413 7.40255 15.9672 7.40225C15.8828 7.40225 15.8043 7.40225 15.7233 7.41322C15.3352 7.45963 15.1614 7.66635 15.1614 7.85198C15.1572 8.09498 15.4643 8.25698 15.8195 8.44261C16.3629 8.72949 17.0396 9.0864 17.0396 9.90907L17.0632 9.88713C17.0624 10.9688 16.1435 11.6658 14.7226 11.6658ZM18.3331 11.6219H16.9156L18.9406 6.79474C18.9871 6.68145 19.0662 6.58455 19.1679 6.51634C19.2697 6.44813 19.3894 6.4117 19.5118 6.41167H20.6399L21.7647 11.6194H20.5277L20.3362 10.8448H18.6149L18.3331 11.6219ZM19.7287 7.81823L19.0199 9.77576L20.224 9.76479L19.7287 7.81823ZM12.2698 11.6101H10.9307L12.0555 6.4007H13.3945L12.2698 11.6101ZM9.28878 11.6101H7.84848L6.72374 7.45878C6.71278 7.36195 6.67829 7.26927 6.62329 7.18882C6.56828 7.10837 6.49443 7.0426 6.40818 6.99725C6.00618 6.80389 5.58357 6.6567 5.14844 6.55849V6.4007H7.39791C7.54891 6.4009 7.69475 6.45566 7.80855 6.55489C7.92236 6.65413 7.99648 6.79115 8.01723 6.94071L8.59099 9.94451L10.0988 6.4007H11.4708L9.28878 11.6101Z" fill="white" style="fill:white;fill-opacity:1;"/>
</svg>
