<svg width="298" height="128" viewBox="0 0 298 128" fill="none" xmlns="http://www.w3.org/2000/svg">
<path d="M164.599 25.125C177.034 34.2059 185.448 51.6988 185.448 71.7921C185.448 101.228 167.386 125.085 145.103 125.085C122.819 125.085 104.758 101.228 104.758 71.7921C104.758 51.6988 113.178 34.2059 125.607 25.125C106.22 32.9785 92.5176 52.1991 92.5176 74.6659C92.5176 104.119 116.057 128 145.103 128C174.149 128 197.682 104.119 197.682 74.6659C197.682 52.1991 183.985 32.9727 164.593 25.125" fill="#4F2948" style="fill:#4F2948;fill:color(display-p3 0.3098 0.1608 0.2824);fill-opacity:1;"/>
<path d="M145.108 35.5151C145.108 25.707 152.949 17.7546 162.62 17.7546C152.949 17.7546 145.108 9.80226 145.108 -0.00585938C145.108 9.80226 137.268 17.7546 127.597 17.7546C137.268 17.7546 145.108 25.707 145.108 35.5151Z" fill="#CEA782" style="fill:#CEA782;fill:color(display-p3 0.8078 0.6549 0.5098);fill-opacity:1;"/>
<path d="M82.3192 25.858L15.4635 127.267H49.4535C65.7258 127.267 74.9029 117.418 79.5776 107.72H80.3806L74.9029 128H0V127.267L66.6894 25.858H33.8294C17.7177 25.858 8.54051 35.8523 3.86588 45.4044H3.06288L8.54051 25.125H82.3192V25.858Z" fill="#4F2948" style="fill:#4F2948;fill:color(display-p3 0.3098 0.1608 0.2824);fill-opacity:1;"/>
<path d="M298 25.125V25.858C287.693 27.6207 277.701 35.8523 272.224 48.6389C268.839 56.5738 262.398 72.5949 257.724 84.4973V111.1C257.884 121.827 258.687 127.267 267.87 127.267V128H233.559V127.267C242.742 127.267 243.705 121.827 243.705 111.1V84.6485C237.264 73.3337 227.273 55.6954 223.407 48.9356C218.25 39.971 208.907 25.8638 198.76 25.8638V25.1308H234.362V25.8638C228.081 25.8638 230.175 33.9442 232.75 38.6504C236.134 44.6772 255.303 79.0638 257.557 83.1825C262.226 71.1289 267.864 56.7309 269.155 53.9385C274.954 40.4189 274.472 25.8696 263.677 25.8696V25.1366H297.988L298 25.125Z" fill="#4F2948" style="fill:#4F2948;fill:color(display-p3 0.3098 0.1608 0.2824);fill-opacity:1;"/>
</svg>
